<svg width="1282" height="1295" viewBox="0 0 1282 1295" fill="none" xmlns="http://www.w3.org/2000/svg">
<rect y="1250" width="900.135" height="45" fill="#FBFBFE"/>
<rect x="427" y="1272" width="1253" height="45" transform="rotate(-90 427 1272)" fill="#FBFBFE"/>
<rect x="350" width="674" height="45" fill="#FBFBFE"/>
<rect width="212.016" height="45.0042" transform="matrix(0.70716 -0.707054 0.783976 0.620791 427.064 149.906)" fill="#FBFBFE"/>
<rect x="979" y="120" width="101" height="45" transform="rotate(-90 979 120)" fill="#FBFBFE"/>
<path d="M1057.16 178C1057.16 208.373 1032.54 233 1002.15 233C971.766 233 947.139 208.373 947.139 178C947.139 147.627 971.766 123 1002.15 123C1032.54 123 1057.16 147.627 1057.16 178Z" stroke="white" stroke-width="40"/>
<rect x="982.147" y="241" width="40.006" height="380" fill="#FBFBFE"/>
<rect width="40.0015" height="300.034" transform="matrix(0.500056 -0.865993 0.866058 0.499944 1002.15 287.641)" fill="#FBFBFE"/>
</svg>
